<?xml version="1.0" encoding="UTF-8" standalone="no"?>
<svg
   xmlns:dc="http://purl.org/dc/elements/1.1/"
   xmlns:cc="http://creativecommons.org/ns#"
   xmlns:rdf="http://www.w3.org/1999/02/22-rdf-syntax-ns#"
   xmlns:svg="http://www.w3.org/2000/svg"
   xmlns="http://www.w3.org/2000/svg"
   xmlns:sodipodi="http://sodipodi.sourceforge.net/DTD/sodipodi-0.dtd"
   xmlns:inkscape="http://www.inkscape.org/namespaces/inkscape"
   width="688.49951mm"
   height="353.78058mm"
   viewBox="120 178 1365.8615 690.37753"
   id="svg2"
   version="1.1"
   inkscape:version="0.91 r13725"
   sodipodi:docname="MuxClock.svg">
  <metadata
     id="metadata288">
    <rdf:RDF>
      <cc:Work
         rdf:about="">
        <dc:format>image/svg+xml</dc:format>
        <dc:type
           rdf:resource="http://purl.org/dc/dcmitype/StillImage" />
        <dc:title></dc:title>
      </cc:Work>
    </rdf:RDF>
  </metadata>
  <defs
     id="defs286" />
  <sodipodi:namedview
     pagecolor="#ffffff"
     bordercolor="#666666"
     borderopacity="1"
     objecttolerance="10"
     gridtolerance="10"
     guidetolerance="10"
     inkscape:pageopacity="0"
     inkscape:pageshadow="2"
     inkscape:window-width="841"
     inkscape:window-height="480"
     id="namedview284"
     showgrid="false"
     units="mm"
     fit-margin-right="5"
     fit-margin-top="5"
     fit-margin-bottom="5"
     fit-margin-left="5"
     inkscape:zoom="0.10334314"
     inkscape:cx="1219.6705"
     inkscape:cy="627.66964"
     inkscape:window-x="2614"
     inkscape:window-y="1138"
     inkscape:window-maximized="0"
     inkscape:current-layer="svg2" />
  <rect
     style="fill:none;fill-opacity:0;stroke:#000000;stroke-width:2;stroke-dasharray:20"
     x="348.36801"
     y="183.25"
     width="900"
     height="680"
     id="rect4" />
  <g
     id="g6"
     transform="translate(8.3680023,3.2500003)">
    <line
       style="fill:none;fill-opacity:0;stroke:#000000;stroke-width:2"
       x1="400"
       y1="320"
       x2="450.26401"
       y2="320"
       id="line8" />
    <polygon
       style="fill:#000000"
       points="447.764,325 450.264,320 447.764,315 457.764,320 "
       id="polygon10" />
    <polygon
       style="fill:none;fill-opacity:0;stroke:#000000;stroke-width:2"
       points="447.764,325 450.264,320 447.764,315 457.764,320 "
       id="polygon12" />
  </g>
  <rect
     style="fill:none;fill-opacity:0;stroke:#000000;stroke-width:2"
     x="468.36801"
     y="303.25"
     width="260"
     height="40"
     id="rect14" />
  <text
     font-size="15.8044"
     style="font-style:normal;font-weight:normal;font-size:15.80440044px;font-family:sans-serif;text-anchor:middle;fill:#000000"
     x="598.36798"
     y="328.70001"
     id="text16">
    <tspan
       x="598.36798"
       y="328.70001"
       id="tspan18">Programmable clock generator</tspan>
  </text>
  <g
     id="g20"
     transform="translate(8.3680023,3.2500003)">
    <polygon
       style="fill:none;fill-opacity:0;stroke:#000000;stroke-width:2"
       points="840,240 840,320 780,360 780,200 "
       id="polygon22" />
    <text
       font-size="12.8"
       style="font-style:normal;font-weight:normal;font-size:12.80000019px;font-family:sans-serif;text-anchor:middle;fill:#000000"
       x="810"
       y="284"
       id="text24">
      <tspan
         x="810"
         y="284"
         id="tspan26" />
    </text>
  </g>
  <g
     id="g28"
     transform="translate(8.3680023,3.2500003)">
    <line
       style="fill:none;fill-opacity:0;stroke:#000000;stroke-width:2"
       x1="720"
       y1="320"
       x2="770.26398"
       y2="320"
       id="line30" />
    <polygon
       style="fill:#000000"
       points="767.764,325 770.264,320 767.764,315 777.764,320 "
       id="polygon32" />
    <polygon
       style="fill:none;fill-opacity:0;stroke:#000000;stroke-width:2"
       points="767.764,325 770.264,320 767.764,315 777.764,320 "
       id="polygon34" />
  </g>
  <g
     id="g36"
     transform="translate(8.3680023,3.2500003)">
    <line
       style="fill:none;fill-opacity:0;stroke:#000000;stroke-width:2"
       x1="321"
       y1="240"
       x2="770.26398"
       y2="240"
       id="line38" />
    <path
       style="fill:#ffffff"
       d="m 301,240 c 0,-5 5,-10 10,-10 5,0 10,5 10,10 0,5 -5,10 -10,10 -5,0 -10,-5 -10,-10 z"
       id="path40"
       inkscape:connector-curvature="0" />
    <path
       style="fill:none;fill-opacity:0;stroke:#000000;stroke-width:2"
       d="m 301,240 c 0,-5 5,-10 10,-10 5,0 10,5 10,10 0,5 -5,10 -10,10 -5,0 -10,-5 -10,-10"
       id="path42"
       inkscape:connector-curvature="0" />
    <polygon
       style="fill:#000000"
       points="767.764,245 770.264,240 767.764,235 777.764,240 "
       id="polygon44" />
    <polygon
       style="fill:none;fill-opacity:0;stroke:#000000;stroke-width:2"
       points="767.764,245 770.264,240 767.764,235 777.764,240 "
       id="polygon46" />
  </g>
  <text
     font-size="15.8044"
     style="font-style:normal;font-weight:normal;font-size:15.80440044px;font-family:sans-serif;text-anchor:start;fill:#000000"
     x="128.368"
     y="248.7"
     id="text48">
    <tspan
       x="128.368"
       y="248.7"
       id="tspan50">External clock (J11)</tspan>
  </text>
  <rect
     style="fill:none;fill-opacity:0;stroke:#000000;stroke-width:2"
     x="908.36798"
     y="203.25"
     width="200"
     height="200"
     id="rect52" />
  <text
     font-size="15.8044"
     style="font-style:normal;font-weight:normal;font-size:15.80440044px;font-family:sans-serif;text-anchor:middle;fill:#000000"
     x="1008.368"
     y="308.70001"
     id="text54">
    <tspan
       x="1008.368"
       y="308.70001"
       id="tspan56">Programmable PLL</tspan>
  </text>
  <g
     id="g58"
     transform="translate(8.3680023,3.2500003)">
    <line
       style="fill:none;fill-opacity:0;stroke:#000000;stroke-width:2"
       x1="840"
       y1="280"
       x2="890.26398"
       y2="280"
       id="line60" />
    <polygon
       style="fill:#000000"
       points="887.764,285 890.264,280 887.764,275 897.764,280 "
       id="polygon62" />
    <polygon
       style="fill:none;fill-opacity:0;stroke:#000000;stroke-width:2"
       points="887.764,285 890.264,280 887.764,275 897.764,280 "
       id="polygon64" />
  </g>
  <g
     id="g66"
     transform="translate(8.3680023,3.2500003)">
    <line
       style="fill:none;fill-opacity:0;stroke:#000000;stroke-width:2"
       x1="1100"
       y1="240"
       x2="1150.26"
       y2="240"
       id="line68" />
    <polygon
       style="fill:#000000"
       points="1147.76,245 1150.26,240 1147.76,235 1157.76,240 "
       id="polygon70" />
    <polygon
       style="fill:none;fill-opacity:0;stroke:#000000;stroke-width:2"
       points="1147.76,245 1150.26,240 1147.76,235 1157.76,240 "
       id="polygon72" />
  </g>
  <g
     id="g74"
     transform="translate(8.3680023,3.2500003)">
    <line
       style="fill:none;fill-opacity:0;stroke:#000000;stroke-width:2"
       x1="1100"
       y1="360"
       x2="1150.26"
       y2="360"
       id="line76" />
    <polygon
       style="fill:#000000"
       points="1147.76,365 1150.26,360 1147.76,355 1157.76,360 "
       id="polygon78" />
    <polygon
       style="fill:none;fill-opacity:0;stroke:#000000;stroke-width:2"
       points="1147.76,365 1150.26,360 1147.76,355 1157.76,360 "
       id="polygon80" />
  </g>
  <g
     id="g82"
     transform="translate(8.3680023,3.2500003)">
    <line
       style="fill:none;fill-opacity:0;stroke:#000000;stroke-width:2"
       x1="1100"
       y1="300"
       x2="1150.26"
       y2="300"
       id="line84" />
    <polygon
       style="fill:#000000"
       points="1147.76,305 1150.26,300 1147.76,295 1157.76,300 "
       id="polygon86" />
    <polygon
       style="fill:none;fill-opacity:0;stroke:#000000;stroke-width:2"
       points="1147.76,305 1150.26,300 1147.76,295 1157.76,300 "
       id="polygon88" />
  </g>
  <text
     font-size="15.8044"
     style="font-style:normal;font-weight:normal;font-size:15.80440044px;font-family:sans-serif;text-anchor:start;fill:#000000"
     x="1188.368"
     y="248.7"
     id="text90">
    <tspan
       x="1188.368"
       y="248.7"
       id="tspan92">REF</tspan>
  </text>
  <text
     font-size="15.8044"
     style="font-style:normal;font-weight:normal;font-size:15.80440044px;font-family:sans-serif;text-anchor:start;fill:#000000"
     x="1188.368"
     y="308.70001"
     id="text94">
    <tspan
       x="1188.368"
       y="308.70001"
       id="tspan96">MOD</tspan>
  </text>
  <text
     font-size="15.8044"
     style="font-style:normal;font-weight:normal;font-size:15.80440044px;font-family:sans-serif;text-anchor:start;fill:#000000"
     x="1188.368"
     y="368.70001"
     id="text98">
    <tspan
       x="1188.368"
       y="368.70001"
       id="tspan100">TDC</tspan>
  </text>
  <rect
     style="fill:none;fill-opacity:0;stroke:#000000;stroke-width:2"
     x="948.36798"
     y="443.25"
     width="260"
     height="40"
     id="rect102" />
  <text
     font-size="15.8044"
     style="font-style:normal;font-weight:normal;font-size:15.80440044px;font-family:sans-serif;text-anchor:middle;fill:#000000"
     x="1078.368"
     y="468.70001"
     id="text104">
    <tspan
       x="1078.368"
       y="468.70001"
       id="tspan106">Programmable clock divider</tspan>
  </text>
  <g
     id="g108"
     transform="translate(8.3680023,3.2500003)">
    <line
       style="fill:none;fill-opacity:0;stroke:#000000;stroke-width:2"
       x1="880"
       y1="460"
       x2="930.26398"
       y2="460"
       id="line110" />
    <polygon
       style="fill:#000000"
       points="927.764,465 930.264,460 927.764,455 937.764,460 "
       id="polygon112" />
    <polygon
       style="fill:none;fill-opacity:0;stroke:#000000;stroke-width:2"
       points="927.764,465 930.264,460 927.764,455 937.764,460 "
       id="polygon114" />
  </g>
  <text
     font-size="15.8044"
     style="font-style:normal;font-weight:normal;font-size:15.80440044px;font-family:sans-serif;text-anchor:start;fill:#000000"
     x="848.36798"
     y="468.70001"
     id="text116">
    <tspan
       x="848.36798"
       y="468.70001"
       id="tspan118">REF</tspan>
  </text>
  <g
     id="g120"
     transform="translate(8.3680023,3.2500003)">
    <line
       style="fill:none;fill-opacity:0;stroke:#000000;stroke-width:2"
       x1="1200"
       y1="460"
       x2="1259"
       y2="460"
       id="line122" />
    <path
       style="fill:#ffffff"
       d="m 1279,460 c 0,5 -5,10 -10,10 -5,0 -10,-5 -10,-10 0,-5 5,-10 10,-10 5,0 10,5 10,10 z"
       id="path124"
       inkscape:connector-curvature="0" />
    <path
       style="fill:none;fill-opacity:0;stroke:#000000;stroke-width:2"
       d="m 1279,460 c 0,5 -5,10 -10,10 -5,0 -10,-5 -10,-10 0,-5 5,-10 10,-10 5,0 10,5 10,10"
       id="path126"
       inkscape:connector-curvature="0" />
  </g>
  <text
     font-size="15.8044"
     style="font-style:normal;font-weight:normal;font-size:15.80440044px;font-family:sans-serif;text-anchor:start;fill:#000000"
     x="1308.368"
     y="468.70001"
     id="text128">
    <tspan
       x="1308.368"
       y="468.70001"
       id="tspan130">Reference output (J7)</tspan>
  </text>
  <g
     id="g132"
     transform="translate(8.3680023,3.2500003)">
    <line
       style="fill:none;fill-opacity:0;stroke:#000000;stroke-width:2"
       x1="321"
       y1="700"
       x2="450.26401"
       y2="700"
       id="line134" />
    <path
       style="fill:#ffffff"
       d="m 301,700 c 0,-5 5,-10 10,-10 5,0 10,5 10,10 0,5 -5,10 -10,10 -5,0 -10,-5 -10,-10 z"
       id="path136"
       inkscape:connector-curvature="0" />
    <path
       style="fill:none;fill-opacity:0;stroke:#000000;stroke-width:2"
       d="m 301,700 c 0,-5 5,-10 10,-10 5,0 10,5 10,10 0,5 -5,10 -10,10 -5,0 -10,-5 -10,-10"
       id="path138"
       inkscape:connector-curvature="0" />
    <polygon
       style="fill:#000000"
       points="447.764,705 450.264,700 447.764,695 457.764,700 "
       id="polygon140" />
    <polygon
       style="fill:none;fill-opacity:0;stroke:#000000;stroke-width:2"
       points="447.764,705 450.264,700 447.764,695 457.764,700 "
       id="polygon142" />
  </g>
  <text
     font-size="15.8044"
     style="font-style:normal;font-weight:normal;font-size:15.80440044px;font-family:sans-serif;text-anchor:start;fill:#000000"
     x="128.368"
     y="708.70001"
     id="text144">
    <tspan
       x="128.368"
       y="708.70001"
       id="tspan146">External trigger (J10)</tspan>
  </text>
  <text
     font-size="15.8044"
     style="font-style:normal;font-weight:normal;font-size:15.80440044px;font-family:sans-serif;text-anchor:start;fill:#000000"
     x="368.36801"
     y="328.70001"
     id="text148">
    <tspan
       x="368.36801"
       y="328.70001"
       id="tspan150">INT</tspan>
  </text>
  <g
     id="g152"
     transform="translate(8.3680023,3.2500003)">
    <polygon
       style="fill:none;fill-opacity:0;stroke:#000000;stroke-width:2"
       points="860,560 860,640 780,640 780,560 "
       id="polygon154" />
    <line
       style="fill:none;fill-opacity:0;stroke:#000000;stroke-width:2"
       x1="804"
       y1="640"
       x2="820"
       y2="624"
       id="line156" />
    <line
       style="fill:none;fill-opacity:0;stroke:#000000;stroke-width:2"
       x1="820"
       y1="624"
       x2="836"
       y2="640"
       id="line158" />
    <text
       font-size="12.8"
       style="font-style:normal;font-weight:normal;font-size:12.80000019px;font-family:sans-serif;text-anchor:middle;fill:#000000"
       x="820"
       y="596"
       id="text160">
      <tspan
         x="820"
         y="596"
         id="tspan162">SYNC</tspan>
    </text>
  </g>
  <g
     id="g164"
     transform="translate(8.3680023,3.2500003)">
    <polygon
       style="fill:none;fill-opacity:0;stroke:#000000;stroke-width:2"
       points="860,720 860,800 780,800 780,720 "
       id="polygon166" />
    <line
       style="fill:none;fill-opacity:0;stroke:#000000;stroke-width:2"
       x1="804"
       y1="800"
       x2="820"
       y2="784"
       id="line168" />
    <line
       style="fill:none;fill-opacity:0;stroke:#000000;stroke-width:2"
       x1="820"
       y1="784"
       x2="836"
       y2="800"
       id="line170" />
    <text
       font-size="12.8"
       style="font-style:normal;font-weight:normal;font-size:12.80000019px;font-family:sans-serif;text-anchor:middle;fill:#000000"
       x="820"
       y="756"
       id="text172">
      <tspan
         x="820"
         y="756"
         id="tspan174">SYNC</tspan>
    </text>
  </g>
  <text
     font-size="15.8044"
     style="font-style:normal;font-weight:normal;font-size:15.80440044px;font-family:sans-serif;text-anchor:start;fill:#000000"
     x="688.36798"
     y="688.70001"
     id="text176">
    <tspan
       x="688.36798"
       y="688.70001"
       id="tspan178">MOD</tspan>
  </text>
  <g
     id="g180"
     transform="translate(8.3680023,3.2500003)">
    <polyline
       style="fill:none;fill-opacity:0;stroke:#000000;stroke-width:2"
       points="720,680 720,680 820,680 820,649.736 "
       id="polyline182" />
    <polygon
       style="fill:#000000"
       points="825,652.236 820,649.736 815,652.236 820,642.236 "
       id="polygon184" />
    <polygon
       style="fill:none;fill-opacity:0;stroke:#000000;stroke-width:2"
       points="825,652.236 820,649.736 815,652.236 820,642.236 "
       id="polygon186" />
  </g>
  <text
     font-size="15.8044"
     style="font-style:normal;font-weight:normal;font-size:15.80440044px;font-family:sans-serif;text-anchor:start;fill:#000000"
     x="688.36798"
     y="848.70001"
     id="text188">
    <tspan
       x="688.36798"
       y="848.70001"
       id="tspan190">INT</tspan>
  </text>
  <g
     id="g192"
     transform="translate(8.3680023,3.2500003)">
    <polyline
       style="fill:none;fill-opacity:0;stroke:#000000;stroke-width:2"
       points="720,840 720,840 820,840 820,809.736 "
       id="polyline194" />
    <polygon
       style="fill:#000000"
       points="825,812.236 820,809.736 815,812.236 820,802.236 "
       id="polygon196" />
    <polygon
       style="fill:none;fill-opacity:0;stroke:#000000;stroke-width:2"
       points="825,812.236 820,809.736 815,812.236 820,802.236 "
       id="polygon198" />
  </g>
  <g
     id="g200"
     transform="translate(8.3680023,3.2500003)">
    <polyline
       style="fill:none;fill-opacity:0;stroke:#000000;stroke-width:2"
       points="520,660 620,660 620,740 770.264,740 "
       id="polyline202" />
    <polygon
       style="fill:#000000"
       points="767.764,745 770.264,740 767.764,735 777.764,740 "
       id="polygon204" />
    <polygon
       style="fill:none;fill-opacity:0;stroke:#000000;stroke-width:2"
       points="767.764,745 770.264,740 767.764,735 777.764,740 "
       id="polygon206" />
  </g>
  <g
     id="g208"
     transform="translate(8.3680023,3.2500003)">
    <line
       style="fill:none;fill-opacity:0;stroke:#000000;stroke-width:2"
       x1="860"
       y1="580"
       x2="1050.26"
       y2="580"
       id="line210" />
    <polygon
       style="fill:#000000"
       points="1047.76,585 1050.26,580 1047.76,575 1057.76,580 "
       id="polygon212" />
    <polygon
       style="fill:none;fill-opacity:0;stroke:#000000;stroke-width:2"
       points="1047.76,585 1050.26,580 1047.76,575 1057.76,580 "
       id="polygon214" />
  </g>
  <g
     id="g216"
     transform="translate(8.3680023,3.2500003)">
    <line
       style="fill:none;fill-opacity:0;stroke:#000000;stroke-width:2"
       x1="860"
       y1="740"
       x2="1050.26"
       y2="740"
       id="line218" />
    <polygon
       style="fill:#000000"
       points="1047.76,745 1050.26,740 1047.76,735 1057.76,740 "
       id="polygon220" />
    <polygon
       style="fill:none;fill-opacity:0;stroke:#000000;stroke-width:2"
       points="1047.76,745 1050.26,740 1047.76,735 1057.76,740 "
       id="polygon222" />
  </g>
  <text
     font-size="15.8044"
     style="font-style:normal;font-weight:normal;font-size:15.80440044px;font-family:sans-serif;text-anchor:start;fill:#000000"
     x="1088.368"
     y="588.70001"
     id="text224">
    <tspan
       x="1088.368"
       y="588.70001"
       id="tspan226">TDC trigger</tspan>
  </text>
  <text
     font-size="15.8044"
     style="font-style:normal;font-weight:normal;font-size:15.80440044px;font-family:sans-serif;text-anchor:start;fill:#000000"
     x="1088.368"
     y="748.70001"
     id="text228">
    <tspan
       x="1088.368"
       y="748.70001"
       id="tspan230">Intensity trigger</tspan>
  </text>
  <rect
     style="fill:none;fill-opacity:0;stroke:#000000;stroke-width:2"
     x="408.36801"
     y="443.25"
     width="200"
     height="40"
     id="rect232" />
  <text
     font-size="15.8044"
     style="font-style:normal;font-weight:normal;font-size:15.80440044px;font-family:sans-serif;text-anchor:middle;fill:#000000"
     x="508.36801"
     y="468.70001"
     id="text234">
    <tspan
       x="508.36801"
       y="468.70001"
       id="tspan236">Fixed DCM</tspan>
  </text>
  <g
     id="g238"
     transform="translate(8.3680023,3.2500003)">
    <line
       style="fill:none;fill-opacity:0;stroke:#000000;stroke-width:2"
       x1="321"
       y1="460"
       x2="390.26401"
       y2="460"
       id="line240" />
    <path
       style="fill:#ffffff"
       d="m 301,460 c 0,-5 5,-10 10,-10 5,0 10,5 10,10 0,5 -5,10 -10,10 -5,0 -10,-5 -10,-10 z"
       id="path242"
       inkscape:connector-curvature="0" />
    <path
       style="fill:none;fill-opacity:0;stroke:#000000;stroke-width:2"
       d="m 301,460 c 0,-5 5,-10 10,-10 5,0 10,5 10,10 0,5 -5,10 -10,10 -5,0 -10,-5 -10,-10"
       id="path244"
       inkscape:connector-curvature="0" />
    <polygon
       style="fill:#000000"
       points="387.764,465 390.264,460 387.764,455 397.764,460 "
       id="polygon246" />
    <polygon
       style="fill:none;fill-opacity:0;stroke:#000000;stroke-width:2"
       points="387.764,465 390.264,460 387.764,455 397.764,460 "
       id="polygon248" />
  </g>
  <text
     font-size="15.8044"
     style="font-style:normal;font-weight:normal;font-size:15.80440044px;font-family:sans-serif;text-anchor:start;fill:#000000"
     x="188.368"
     y="468.70001"
     id="text250">
    <tspan
       x="188.368"
       y="468.70001"
       id="tspan252">48 MHz clock</tspan>
  </text>
  <g
     id="g254"
     transform="translate(8.3680023,3.2500003)">
    <line
       style="fill:none;fill-opacity:0;stroke:#000000;stroke-width:2"
       x1="600"
       y1="460"
       x2="650.26398"
       y2="460"
       id="line256" />
    <polygon
       style="fill:#000000"
       points="647.764,465 650.264,460 647.764,455 657.764,460 "
       id="polygon258" />
    <polygon
       style="fill:none;fill-opacity:0;stroke:#000000;stroke-width:2"
       points="647.764,465 650.264,460 647.764,455 657.764,460 "
       id="polygon260" />
  </g>
  <text
     font-size="15.8044"
     style="font-style:normal;font-weight:normal;font-size:15.80440044px;font-family:sans-serif;text-anchor:start;fill:#000000"
     x="688.36798"
     y="468.70001"
     id="text262">
    <tspan
       x="688.36798"
       y="468.70001"
       id="tspan264">INT (100 MHz)</tspan>
  </text>
  <g
     id="g266"
     transform="translate(8.3680023,3.2500003)">
    <polygon
       style="fill:none;fill-opacity:0;stroke:#000000;stroke-width:2"
       points="520,620 520,700 460,740 460,580 "
       id="polygon268" />
    <text
       font-size="12.8"
       style="font-style:normal;font-weight:normal;font-size:12.80000019px;font-family:sans-serif;text-anchor:middle;fill:#000000"
       x="490"
       y="664"
       id="text270">
      <tspan
         x="490"
         y="664"
         id="tspan272" />
    </text>
  </g>
  <g
     id="g274"
     transform="translate(8.3680023,3.2500003)">
    <polyline
       style="fill:none;fill-opacity:0;stroke:#000000;stroke-width:2"
       points="620,660 620,660 620,580 770.264,580 "
       id="polyline276" />
    <polygon
       style="fill:#000000"
       points="767.764,585 770.264,580 767.764,575 777.764,580 "
       id="polygon278" />
    <polygon
       style="fill:none;fill-opacity:0;stroke:#000000;stroke-width:2"
       points="767.764,585 770.264,580 767.764,575 777.764,580 "
       id="polygon280" />
  </g>
  <polyline
     style="fill:none;fill-opacity:0;stroke:#000000;stroke-width:2"
     points="1220,460 1220,520 420,520 420,620 460,620 "
     id="polyline282"
     transform="translate(8.3680023,3.2500003)" />
</svg>
