<?xml version="1.0" encoding="UTF-8" standalone="no"?>
<svg
   xmlns:dc="http://purl.org/dc/elements/1.1/"
   xmlns:cc="http://creativecommons.org/ns#"
   xmlns:rdf="http://www.w3.org/1999/02/22-rdf-syntax-ns#"
   xmlns:svg="http://www.w3.org/2000/svg"
   xmlns="http://www.w3.org/2000/svg"
   xmlns:sodipodi="http://sodipodi.sourceforge.net/DTD/sodipodi-0.dtd"
   xmlns:inkscape="http://www.inkscape.org/namespaces/inkscape"
   width="656mm"
   height="302.59427mm"
   viewBox="98 110 1284.8 605.18854"
   id="svg2"
   version="1.1"
   inkscape:version="0.91 r13725"
   sodipodi:docname="MuxProcessing.svg">
  <metadata
     id="metadata272">
    <rdf:RDF>
      <cc:Work
         rdf:about="">
        <dc:format>image/svg+xml</dc:format>
        <dc:type
           rdf:resource="http://purl.org/dc/dcmitype/StillImage" />
        <dc:title></dc:title>
      </cc:Work>
    </rdf:RDF>
  </metadata>
  <defs
     id="defs270" />
  <sodipodi:namedview
     pagecolor="#ffffff"
     bordercolor="#666666"
     borderopacity="1"
     objecttolerance="10"
     gridtolerance="10"
     guidetolerance="10"
     inkscape:pageopacity="0"
     inkscape:pageshadow="2"
     inkscape:window-width="841"
     inkscape:window-height="480"
     id="namedview268"
     showgrid="false"
     units="mm"
     fit-margin-top="5"
     fit-margin-left="5"
     fit-margin-bottom="120"
     fit-margin-right="250"
     inkscape:zoom="0.17139837"
     inkscape:cx="727.26381"
     inkscape:cy="741.66893"
     inkscape:window-x="0"
     inkscape:window-y="1392"
     inkscape:window-maximized="0"
     inkscape:current-layer="svg2" />
  <g
     id="g4"
     transform="translate(0.50001927,6.5576433)">
    <rect
       style="fill:#0000ff"
       x="160"
       y="140"
       width="20"
       height="40"
       id="rect6" />
    <rect
       style="fill:none;fill-opacity:0;stroke:#0000ff;stroke-width:2"
       x="160"
       y="140"
       width="20"
       height="40"
       id="rect8" />
  </g>
  <g
     id="g10"
     transform="translate(0.50001927,6.5576433)">
    <rect
       style="fill:#0000ff"
       x="260"
       y="140"
       width="40"
       height="40"
       id="rect12" />
    <rect
       style="fill:none;fill-opacity:0;stroke:#0000ff;stroke-width:2"
       x="260"
       y="140"
       width="40"
       height="40"
       id="rect14" />
  </g>
  <g
     id="g16"
     transform="translate(0.50001927,6.5576433)">
    <rect
       style="fill:#ff0000"
       x="180"
       y="140"
       width="80"
       height="40"
       id="rect18" />
    <rect
       style="fill:none;fill-opacity:0;stroke:#ff0000;stroke-width:2"
       x="180"
       y="140"
       width="80"
       height="40"
       id="rect20" />
  </g>
  <g
     id="g22"
     transform="translate(0.50001927,6.5576433)">
    <rect
       style="fill:#0000ff"
       x="560"
       y="140"
       width="20"
       height="40"
       id="rect24" />
    <rect
       style="fill:none;fill-opacity:0;stroke:#0000ff;stroke-width:2"
       x="560"
       y="140"
       width="20"
       height="40"
       id="rect26" />
  </g>
  <g
     id="g28"
     transform="translate(0.50001927,6.5576433)">
    <rect
       style="fill:#0000ff"
       x="660"
       y="140"
       width="40"
       height="40"
       id="rect30" />
    <rect
       style="fill:none;fill-opacity:0;stroke:#0000ff;stroke-width:2"
       x="660"
       y="140"
       width="40"
       height="40"
       id="rect32" />
  </g>
  <g
     id="g34"
     transform="translate(0.50001927,6.5576433)">
    <rect
       style="fill:#ff0000"
       x="580"
       y="140"
       width="80"
       height="40"
       id="rect36" />
    <rect
       style="fill:none;fill-opacity:0;stroke:#ff0000;stroke-width:2"
       x="580"
       y="140"
       width="80"
       height="40"
       id="rect38" />
  </g>
  <text
     font-size="15.8044"
     style="font-style:normal;font-weight:700;font-size:15.80440044px;font-family:sans-serif;text-anchor:start;fill:#000000"
     x="100.50002"
     y="132.00764"
     id="text40">
    <tspan
       x="100.50002"
       y="132.00764"
       id="tspan42">Raw histogram from memory</tspan>
  </text>
  <rect
     style="fill:none;fill-opacity:0;stroke:#000000;stroke-width:2"
     x="100.50002"
     y="266.55765"
     width="80"
     height="40"
     id="rect44" />
  <rect
     style="fill:none;fill-opacity:0;stroke:#000000;stroke-width:2"
     x="180.50002"
     y="266.55765"
     width="80"
     height="40"
     id="rect46" />
  <rect
     style="fill:none;fill-opacity:0;stroke:#000000;stroke-width:2"
     x="260.50003"
     y="266.55765"
     width="80"
     height="40"
     id="rect48" />
  <rect
     style="fill:none;fill-opacity:0;stroke:#000000;stroke-width:2"
     x="340.50003"
     y="266.55765"
     width="80"
     height="40"
     id="rect50" />
  <rect
     style="fill:none;fill-opacity:0;stroke:#000000;stroke-width:2"
     x="420.50003"
     y="266.55765"
     width="80"
     height="40"
     id="rect52" />
  <rect
     style="fill:none;fill-opacity:0;stroke:#000000;stroke-width:2"
     x="500.50003"
     y="266.55765"
     width="80"
     height="40"
     id="rect54" />
  <rect
     style="fill:none;fill-opacity:0;stroke:#000000;stroke-width:2"
     x="580.5"
     y="266.55765"
     width="80"
     height="40"
     id="rect56" />
  <rect
     style="fill:none;fill-opacity:0;stroke:#000000;stroke-width:2"
     x="660.5"
     y="266.55765"
     width="80"
     height="40"
     id="rect58" />
  <rect
     style="fill:none;fill-opacity:0;stroke:#000000;stroke-width:2"
     x="740.5"
     y="266.55765"
     width="80"
     height="40"
     id="rect60" />
  <rect
     style="fill:none;fill-opacity:0;stroke:#000000;stroke-width:2"
     x="820.5"
     y="266.55765"
     width="80"
     height="40"
     id="rect62" />
  <g
     id="g64"
     transform="translate(0.50001927,6.5576433)">
    <rect
       style="fill:none;fill-opacity:0;stroke:#000000;stroke-width:2"
       x="100"
       y="140"
       width="20"
       height="40"
       id="rect66" />
    <rect
       style="fill:none;fill-opacity:0;stroke:#000000;stroke-width:2"
       x="120"
       y="140"
       width="40"
       height="40"
       id="rect68" />
    <rect
       style="fill:none;fill-opacity:0;stroke:#000000;stroke-width:2"
       x="300"
       y="140"
       width="20"
       height="40"
       id="rect70" />
    <rect
       style="fill:none;fill-opacity:0;stroke:#000000;stroke-width:2"
       x="160"
       y="140"
       width="140"
       height="40"
       id="rect72" />
    <rect
       style="fill:none;fill-opacity:0;stroke:#000000;stroke-width:2"
       x="320"
       y="140"
       width="60"
       height="40"
       id="rect74" />
    <rect
       style="fill:none;fill-opacity:0;stroke:#000000;stroke-width:2"
       x="380"
       y="140"
       width="20"
       height="40"
       id="rect76" />
    <rect
       style="fill:none;fill-opacity:0;stroke:#000000;stroke-width:2"
       x="480"
       y="140"
       width="20"
       height="40"
       id="rect78" />
    <rect
       style="fill:none;fill-opacity:0;stroke:#000000;stroke-width:2"
       x="400"
       y="140"
       width="80"
       height="40"
       id="rect80" />
  </g>
  <g
     id="g82"
     transform="translate(0.50001927,6.5576433)">
    <rect
       style="fill:none;fill-opacity:0;stroke:#000000;stroke-width:2"
       x="500"
       y="140"
       width="20"
       height="40"
       id="rect84" />
    <rect
       style="fill:none;fill-opacity:0;stroke:#000000;stroke-width:2"
       x="520"
       y="140"
       width="40"
       height="40"
       id="rect86" />
    <rect
       style="fill:none;fill-opacity:0;stroke:#000000;stroke-width:2"
       x="700"
       y="140"
       width="20"
       height="40"
       id="rect88" />
    <rect
       style="fill:none;fill-opacity:0;stroke:#000000;stroke-width:2"
       x="560"
       y="140"
       width="140"
       height="40"
       id="rect90" />
    <rect
       style="fill:none;fill-opacity:0;stroke:#000000;stroke-width:2"
       x="720"
       y="140"
       width="60"
       height="40"
       id="rect92" />
    <rect
       style="fill:none;fill-opacity:0;stroke:#000000;stroke-width:2"
       x="780"
       y="140"
       width="20"
       height="40"
       id="rect94" />
    <rect
       style="fill:none;fill-opacity:0;stroke:#000000;stroke-width:2"
       x="880"
       y="140"
       width="20"
       height="40"
       id="rect96" />
    <rect
       style="fill:none;fill-opacity:0;stroke:#000000;stroke-width:2"
       x="800"
       y="140"
       width="80"
       height="40"
       id="rect98" />
  </g>
  <g
     id="g100"
     transform="translate(0.50001927,6.5576433)">
    <line
       style="fill:none;fill-opacity:0;stroke:#000000;stroke-width:2"
       x1="170"
       y1="180"
       x2="143.41901"
       y2="250.884"
       id="line102" />
    <polygon
       style="fill:#000000"
       points="139.615,246.787 143.419,250.884 148.978,250.299 140.785,257.906 "
       id="polygon104" />
    <polygon
       style="fill:none;fill-opacity:0;stroke:#000000;stroke-width:2"
       points="139.615,246.787 143.419,250.884 148.978,250.299 140.785,257.906 "
       id="polygon106" />
  </g>
  <g
     id="g108"
     transform="translate(0.50001927,6.5576433)">
    <line
       style="fill:none;fill-opacity:0;stroke:#000000;stroke-width:2"
       x1="220"
       y1="180"
       x2="220"
       y2="250.26401"
       id="line110" />
    <polygon
       style="fill:#000000"
       points="215,247.764 220,250.264 225,247.764 220,257.764 "
       id="polygon112" />
    <polygon
       style="fill:none;fill-opacity:0;stroke:#000000;stroke-width:2"
       points="215,247.764 220,250.264 225,247.764 220,257.764 "
       id="polygon114" />
  </g>
  <g
     id="g116"
     transform="translate(0.50001927,6.5576433)">
    <line
       style="fill:none;fill-opacity:0;stroke:#000000;stroke-width:2"
       x1="280"
       y1="180"
       x2="297.63901"
       y2="250.55499"
       id="line118" />
    <polygon
       style="fill:#000000"
       points="292.182,249.342 297.639,250.555 301.883,246.917 299.458,257.831 "
       id="polygon120" />
    <polygon
       style="fill:none;fill-opacity:0;stroke:#000000;stroke-width:2"
       points="292.182,249.342 297.639,250.555 301.883,246.917 299.458,257.831 "
       id="polygon122" />
  </g>
  <g
     id="g124"
     transform="translate(0.50001927,6.5576433)">
    <line
       style="fill:none;fill-opacity:0;stroke:#000000;stroke-width:2"
       x1="140"
       y1="180"
       x2="140"
       y2="250.26401"
       id="line126" />
    <polygon
       style="fill:#000000"
       points="135,247.764 140,250.264 145,247.764 140,257.764 "
       id="polygon128" />
    <polygon
       style="fill:none;fill-opacity:0;stroke:#000000;stroke-width:2"
       points="135,247.764 140,250.264 145,247.764 140,257.764 "
       id="polygon130" />
  </g>
  <g
     id="g132"
     transform="translate(0.50001927,6.5576433)">
    <line
       style="fill:none;fill-opacity:0;stroke:#000000;stroke-width:2"
       x1="110"
       y1="180"
       x2="136.58099"
       y2="250.884"
       id="line134" />
    <polygon
       style="fill:#000000"
       points="131.022,250.299 136.581,250.884 140.385,246.787 139.215,257.906 "
       id="polygon136" />
    <polygon
       style="fill:none;fill-opacity:0;stroke:#000000;stroke-width:2"
       points="131.022,250.299 136.581,250.884 140.385,246.787 139.215,257.906 "
       id="polygon138" />
  </g>
  <g
     id="g140"
     transform="translate(0.50001927,6.5576433)">
    <line
       style="fill:none;fill-opacity:0;stroke:#000000;stroke-width:2"
       x1="310"
       y1="180"
       x2="301.20801"
       y2="250.339"
       id="line142" />
    <polygon
       style="fill:#000000"
       points="296.556,247.238 301.208,250.339 306.479,248.479 300.277,257.781 "
       id="polygon144" />
    <polygon
       style="fill:none;fill-opacity:0;stroke:#000000;stroke-width:2"
       points="296.556,247.238 301.208,250.339 306.479,248.479 300.277,257.781 "
       id="polygon146" />
  </g>
  <g
     id="g148"
     transform="translate(0.50001927,6.5576433)">
    <line
       style="fill:none;fill-opacity:0;stroke:#000000;stroke-width:2"
       x1="350"
       y1="180"
       x2="305.16"
       y2="251.744"
       id="line150" />
    <polygon
       style="fill:#000000"
       points="302.245,246.974 305.16,251.744 310.725,252.274 301.185,258.104 "
       id="polygon152" />
    <polygon
       style="fill:none;fill-opacity:0;stroke:#000000;stroke-width:2"
       points="302.245,246.974 305.16,251.744 310.725,252.274 301.185,258.104 "
       id="polygon154" />
  </g>
  <g
     id="g156"
     transform="translate(0.50001927,6.5576433)">
    <line
       style="fill:none;fill-opacity:0;stroke:#000000;stroke-width:2"
       x1="350"
       y1="180"
       x2="376.58099"
       y2="250.884"
       id="line158" />
    <polygon
       style="fill:#000000"
       points="371.022,250.299 376.581,250.884 380.385,246.787 379.215,257.906 "
       id="polygon160" />
    <polygon
       style="fill:none;fill-opacity:0;stroke:#000000;stroke-width:2"
       points="371.022,250.299 376.581,250.884 380.385,246.787 379.215,257.906 "
       id="polygon162" />
  </g>
  <g
     id="g164"
     transform="translate(0.50001927,6.5576433)">
    <line
       style="fill:none;fill-opacity:0;stroke:#000000;stroke-width:2"
       x1="570"
       y1="180"
       x2="543.41901"
       y2="250.884"
       id="line166" />
    <polygon
       style="fill:#000000"
       points="539.615,246.787 543.419,250.884 548.978,250.299 540.785,257.906 "
       id="polygon168" />
    <polygon
       style="fill:none;fill-opacity:0;stroke:#000000;stroke-width:2"
       points="539.615,246.787 543.419,250.884 548.978,250.299 540.785,257.906 "
       id="polygon170" />
  </g>
  <g
     id="g172"
     transform="translate(0.50001927,6.5576433)">
    <line
       style="fill:none;fill-opacity:0;stroke:#000000;stroke-width:2"
       x1="680"
       y1="180"
       x2="697.63898"
       y2="250.55499"
       id="line174" />
    <polygon
       style="fill:#000000"
       points="692.182,249.342 697.639,250.555 701.883,246.917 699.458,257.831 "
       id="polygon176" />
    <polygon
       style="fill:none;fill-opacity:0;stroke:#000000;stroke-width:2"
       points="692.182,249.342 697.639,250.555 701.883,246.917 699.458,257.831 "
       id="polygon178" />
  </g>
  <text
     font-size="15.8044"
     style="font-style:normal;font-weight:700;font-size:15.80440044px;font-family:sans-serif;text-anchor:middle;fill:#000000"
     x="500.50003"
     y="226.55765"
     id="text180">
    <tspan
       x="500.50003"
       y="226.55765"
       id="tspan182">1st fraction</tspan>
  </text>
  <text
     font-size="15.8044"
     style="font-style:normal;font-weight:700;font-size:15.80440044px;font-family:sans-serif;text-anchor:middle;fill:#000000"
     x="760.5"
     y="226.55765"
     id="text184">
    <tspan
       x="760.5"
       y="226.55765"
       id="tspan186">last fraction</tspan>
  </text>
  <path
     style="fill:none;fill-opacity:0;stroke:#000000;stroke-width:2"
     d="m 500.50002,306.55764 c 4,28 60,0 80,20"
     id="path188"
     inkscape:connector-curvature="0" />
  <path
     style="fill:none;fill-opacity:0;stroke:#000000;stroke-width:2"
     d="m 660.50002,306.55764 c -4,28 -60,-2 -80,20"
     id="path190"
     inkscape:connector-curvature="0" />
  <text
     font-size="15.8044"
     style="font-style:normal;font-weight:700;font-size:15.80440044px;font-family:sans-serif;text-anchor:middle;fill:#000000"
     x="580.5"
     y="346.55765"
     id="text192">
    <tspan
       x="580.5"
       y="346.55765"
       id="tspan194">number of filled bins</tspan>
  </text>
  <text
     font-size="15.8044"
     style="font-style:normal;font-weight:700;font-size:15.80440044px;font-family:sans-serif;text-anchor:start;fill:#000000"
     x="100.50002"
     y="332.00766"
     id="text196">
    <tspan
       x="100.50002"
       y="332.00766"
       id="tspan198">Processed histogram to rotation</tspan>
  </text>
  <g
     id="g200"
     transform="translate(0.50001927,6.5576433)">
    <line
       style="fill:none;fill-opacity:0;stroke:#000000;stroke-width:2"
       x1="300"
       y1="340"
       x2="149.44501"
       y2="377.63901"
       id="line202" />
    <polygon
       style="fill:#000000"
       points="150.658,372.182 149.445,377.639 153.083,381.883 142.169,379.458 "
       id="polygon204" />
    <polygon
       style="fill:none;fill-opacity:0;stroke:#000000;stroke-width:2"
       points="150.658,372.182 149.445,377.639 153.083,381.883 142.169,379.458 "
       id="polygon206" />
  </g>
  <g
     id="g208"
     transform="translate(0.50001927,6.5576433)">
    <line
       style="fill:none;fill-opacity:0;stroke:#000000;stroke-width:2"
       x1="380"
       y1="340"
       x2="229.44501"
       y2="377.63901"
       id="line210" />
    <polygon
       style="fill:#000000"
       points="230.658,372.182 229.445,377.639 233.083,381.883 222.169,379.458 "
       id="polygon212" />
    <polygon
       style="fill:none;fill-opacity:0;stroke:#000000;stroke-width:2"
       points="230.658,372.182 229.445,377.639 233.083,381.883 222.169,379.458 "
       id="polygon214" />
  </g>
  <g
     id="g216"
     transform="translate(0.50001927,6.5576433)">
    <line
       style="fill:none;fill-opacity:0;stroke:#000000;stroke-width:2"
       x1="860"
       y1="340"
       x2="709.44501"
       y2="377.63901"
       id="line218" />
    <polygon
       style="fill:#000000"
       points="710.658,372.182 709.445,377.639 713.083,381.883 702.169,379.458 "
       id="polygon220" />
    <polygon
       style="fill:none;fill-opacity:0;stroke:#000000;stroke-width:2"
       points="710.658,372.182 709.445,377.639 713.083,381.883 702.169,379.458 "
       id="polygon222" />
  </g>
  <rect
     style="fill:none;fill-opacity:0;stroke:#000000;stroke-width:2"
     x="100.50002"
     y="406.55765"
     width="80"
     height="40"
     id="rect224" />
  <rect
     style="fill:none;fill-opacity:0;stroke:#000000;stroke-width:2"
     x="180.50002"
     y="406.55765"
     width="80"
     height="40"
     id="rect226" />
  <rect
     style="fill:none;fill-opacity:0;stroke:#000000;stroke-width:2"
     x="260.50003"
     y="406.55765"
     width="80"
     height="40"
     id="rect228" />
  <rect
     style="fill:none;fill-opacity:0;stroke:#000000;stroke-width:2"
     x="340.50003"
     y="406.55765"
     width="80"
     height="40"
     id="rect230" />
  <rect
     style="fill:none;fill-opacity:0;stroke:#000000;stroke-width:2"
     x="420.50003"
     y="406.55765"
     width="80"
     height="40"
     id="rect232" />
  <rect
     style="fill:none;fill-opacity:0;stroke:#000000;stroke-width:2"
     x="500.50003"
     y="406.55765"
     width="80"
     height="40"
     id="rect234" />
  <rect
     style="fill:none;fill-opacity:0;stroke:#000000;stroke-width:2"
     x="580.5"
     y="406.55765"
     width="80"
     height="40"
     id="rect236" />
  <rect
     style="fill:none;fill-opacity:0;stroke:#000000;stroke-width:2"
     x="660.5"
     y="406.55765"
     width="80"
     height="40"
     id="rect238" />
  <rect
     style="fill:none;fill-opacity:0;stroke:#000000;stroke-width:2"
     x="740.5"
     y="406.55765"
     width="80"
     height="40"
     id="rect240" />
  <rect
     style="fill:none;fill-opacity:0;stroke:#000000;stroke-width:2"
     x="820.5"
     y="406.55765"
     width="80"
     height="40"
     id="rect242" />
  <line
     style="fill:none;fill-opacity:0;stroke:#000000;stroke-width:2"
     x1="220.50002"
     y1="346.55765"
     x2="100.50002"
     y2="376.55765"
     id="line244" />
  <g
     id="g246"
     transform="translate(0.50001927,6.5576433)">
    <line
       style="fill:none;fill-opacity:0;stroke:#000000;stroke-width:2"
       x1="900"
       y1="350"
       x2="789.44501"
       y2="377.63901"
       id="line248" />
    <polygon
       style="fill:#000000"
       points="790.658,372.182 789.445,377.639 793.083,381.883 782.169,379.458 "
       id="polygon250" />
    <polygon
       style="fill:none;fill-opacity:0;stroke:#000000;stroke-width:2"
       points="790.658,372.182 789.445,377.639 793.083,381.883 782.169,379.458 "
       id="polygon252" />
  </g>
  <line
     style="fill:none;fill-opacity:0;stroke:#000000;stroke-width:2"
     x1="140.50002"
     y1="346.55765"
     x2="100.50002"
     y2="356.55765"
     id="line254" />
  <g
     id="g256"
     transform="translate(0.50001927,6.5576433)">
    <line
       style="fill:none;fill-opacity:0;stroke:#000000;stroke-width:2"
       x1="900"
       y1="370"
       x2="869.44501"
       y2="377.63901"
       id="line258" />
    <polygon
       style="fill:#000000"
       points="870.658,372.182 869.445,377.639 873.083,381.883 862.169,379.458 "
       id="polygon260" />
    <polygon
       style="fill:none;fill-opacity:0;stroke:#000000;stroke-width:2"
       points="870.658,372.182 869.445,377.639 873.083,381.883 862.169,379.458 "
       id="polygon262" />
  </g>
  <text
     font-size="15.8044"
     style="font-style:normal;font-weight:700;font-size:15.80440044px;font-family:sans-serif;text-anchor:start;fill:#000000"
     x="100.50002"
     y="471.77765"
     id="text264">
    <tspan
       x="100.50002"
       y="471.77765"
       id="tspan266">Histogram transferred to PC</tspan>
  </text>
</svg>
