<?xml version="1.0" encoding="UTF-8" standalone="no"?>
<svg
   xmlns:dc="http://purl.org/dc/elements/1.1/"
   xmlns:cc="http://creativecommons.org/ns#"
   xmlns:rdf="http://www.w3.org/1999/02/22-rdf-syntax-ns#"
   xmlns:svg="http://www.w3.org/2000/svg"
   xmlns="http://www.w3.org/2000/svg"
   xmlns:sodipodi="http://sodipodi.sourceforge.net/DTD/sodipodi-0.dtd"
   xmlns:inkscape="http://www.inkscape.org/namespaces/inkscape"
   width="401.21188mm"
   height="329.48636mm"
   viewBox="258 218 768.32076 641.46875"
   id="svg2"
   version="1.1"
   inkscape:version="0.91 r13725"
   sodipodi:docname="MuxStateMachine.svg">
  <metadata
     id="metadata194">
    <rdf:RDF>
      <cc:Work
         rdf:about="">
        <dc:format>image/svg+xml</dc:format>
        <dc:type
           rdf:resource="http://purl.org/dc/dcmitype/StillImage" />
        <dc:title></dc:title>
      </cc:Work>
    </rdf:RDF>
  </metadata>
  <defs
     id="defs192" />
  <sodipodi:namedview
     pagecolor="#ffffff"
     bordercolor="#666666"
     borderopacity="1"
     objecttolerance="10"
     gridtolerance="10"
     guidetolerance="10"
     inkscape:pageopacity="0"
     inkscape:pageshadow="2"
     inkscape:window-width="841"
     inkscape:window-height="480"
     id="namedview190"
     showgrid="false"
     units="mm"
     fit-margin-top="5"
     fit-margin-right="200"
     fit-margin-bottom="5"
     fit-margin-left="5"
     inkscape:zoom="0.20813889"
     inkscape:cx="-630.28242"
     inkscape:cy="584.64562"
     inkscape:window-x="0"
     inkscape:window-y="33"
     inkscape:window-maximized="0"
     inkscape:current-layer="svg2" />
  <text
     font-size="15.8044"
     style="font-style:normal;font-weight:700;font-size:15.80440044px;font-family:sans-serif;text-anchor:middle;fill:#000000"
     x="455.44788"
     y="254.18437"
     id="text4">
    <tspan
       x="455.44788"
       y="254.18437"
       id="tspan6">idle</tspan>
  </text>
  <g
     id="g8"
     transform="translate(5.4478625,8.7343752)">
    <polygon
       style="fill:none;fill-opacity:0;stroke:#000000;stroke-width:2"
       points="450,460 500,480 450,500 400,480 "
       id="polygon10" />
    <polygon
       style="fill:none;fill-opacity:0;stroke:#000000;stroke-width:2"
       points="450,460 500,480 450,500 400,480 "
       id="polygon12" />
  </g>
  <rect
     style="fill:none;fill-opacity:0;stroke:#000000;stroke-width:2"
     x="405.44788"
     y="388.73438"
     width="100"
     height="40"
     id="rect14" />
  <text
     font-size="15.8044"
     style="font-style:normal;font-weight:700;font-size:15.80440044px;font-family:sans-serif;text-anchor:middle;fill:#000000"
     x="455.44788"
     y="414.18439"
     id="text16">
    <tspan
       x="455.44788"
       y="414.18439"
       id="tspan18">acquire</tspan>
  </text>
  <g
     id="g20"
     transform="translate(5.4478625,8.7343752)">
    <line
       style="fill:none;fill-opacity:0;stroke:#000000;stroke-width:2"
       x1="450"
       y1="420"
       x2="450"
       y2="450.26401"
       id="line22" />
    <polygon
       style="fill:#000000"
       points="450,457.764 445,447.764 450,450.264 455,447.764 "
       id="polygon24" />
    <polygon
       style="fill:none;fill-opacity:0;stroke:#000000;stroke-width:2"
       points="450,457.764 445,447.764 450,450.264 455,447.764 "
       id="polygon26" />
  </g>
  <g
     id="g28"
     transform="translate(5.4478625,8.7343752)">
    <polyline
       style="fill:none;fill-opacity:0;stroke:#000000;stroke-width:2"
       points="400,480 379,480 379,400 390.264,400 "
       id="polyline30" />
    <polygon
       style="fill:#000000"
       points="397.764,400 387.764,405 390.264,400 387.764,395 "
       id="polygon32" />
    <polygon
       style="fill:none;fill-opacity:0;stroke:#000000;stroke-width:2"
       points="397.764,400 387.764,405 390.264,400 387.764,395 "
       id="polygon34" />
  </g>
  <ellipse
     style="fill:none;fill-opacity:0;stroke:#000000;stroke-width:2"
     cx="455.44788"
     cy="248.73438"
     rx="50"
     ry="20"
     id="ellipse36" />
  <g
     id="g38"
     transform="translate(5.4478625,8.7343752)">
    <polygon
       style="fill:none;fill-opacity:0;stroke:#000000;stroke-width:2"
       points="450,300 500,320 450,340 400,320 "
       id="polygon40" />
    <polygon
       style="fill:none;fill-opacity:0;stroke:#000000;stroke-width:2"
       points="450,300 500,320 450,340 400,320 "
       id="polygon42" />
  </g>
  <rect
     style="fill:none;fill-opacity:0;stroke:#000000;stroke-width:2"
     x="545.44788"
     y="308.73438"
     width="100"
     height="40"
     id="rect44" />
  <text
     font-size="15.8044"
     style="font-style:normal;font-weight:700;font-size:15.80440044px;font-family:sans-serif;text-anchor:middle;fill:#000000"
     x="595.44788"
     y="334.18439"
     id="text46">
    <tspan
       x="595.44788"
       y="334.18439"
       id="tspan48">trigger</tspan>
  </text>
  <rect
     style="fill:none;fill-opacity:0;stroke:#000000;stroke-width:2"
     x="545.44788"
     y="388.73438"
     width="100"
     height="40"
     id="rect50" />
  <text
     font-size="15.8044"
     style="font-style:normal;font-weight:700;font-size:15.80440044px;font-family:sans-serif;text-anchor:middle;fill:#000000"
     x="595.44788"
     y="414.18439"
     id="text52">
    <tspan
       x="595.44788"
       y="414.18439"
       id="tspan54">delay</tspan>
  </text>
  <g
     id="g56"
     transform="translate(5.4478625,8.7343752)">
    <line
       style="fill:none;fill-opacity:0;stroke:#000000;stroke-width:2"
       x1="500"
       y1="320"
       x2="530.26398"
       y2="320"
       id="line58" />
    <polygon
       style="fill:#000000"
       points="537.764,320 527.764,325 530.264,320 527.764,315 "
       id="polygon60" />
    <polygon
       style="fill:none;fill-opacity:0;stroke:#000000;stroke-width:2"
       points="537.764,320 527.764,325 530.264,320 527.764,315 "
       id="polygon62" />
  </g>
  <g
     id="g64"
     transform="translate(5.4478625,8.7343752)">
    <line
       style="fill:none;fill-opacity:0;stroke:#000000;stroke-width:2"
       x1="590"
       y1="340"
       x2="590"
       y2="370.26401"
       id="line66" />
    <polygon
       style="fill:#000000"
       points="590,377.764 585,367.764 590,370.264 595,367.764 "
       id="polygon68" />
    <polygon
       style="fill:none;fill-opacity:0;stroke:#000000;stroke-width:2"
       points="590,377.764 585,367.764 590,370.264 595,367.764 "
       id="polygon70" />
  </g>
  <g
     id="g72"
     transform="translate(5.4478625,8.7343752)">
    <line
       style="fill:none;fill-opacity:0;stroke:#000000;stroke-width:2"
       x1="540"
       y1="400"
       x2="509.73599"
       y2="400"
       id="line74" />
    <polygon
       style="fill:#000000"
       points="502.236,400 512.236,395 509.736,400 512.236,405 "
       id="polygon76" />
    <polygon
       style="fill:none;fill-opacity:0;stroke:#000000;stroke-width:2"
       points="502.236,400 512.236,395 509.736,400 512.236,405 "
       id="polygon78" />
  </g>
  <g
     id="g80"
     transform="translate(5.4478625,8.7343752)">
    <line
       style="fill:none;fill-opacity:0;stroke:#000000;stroke-width:2"
       x1="450"
       y1="340"
       x2="450"
       y2="370.26401"
       id="line82" />
    <polygon
       style="fill:#000000"
       points="450,377.764 445,367.764 450,370.264 455,367.764 "
       id="polygon84" />
    <polygon
       style="fill:none;fill-opacity:0;stroke:#000000;stroke-width:2"
       points="450,377.764 445,367.764 450,370.264 455,367.764 "
       id="polygon86" />
  </g>
  <g
     id="g88"
     transform="translate(5.4478625,8.7343752)">
    <line
       style="fill:none;fill-opacity:0;stroke:#000000;stroke-width:2"
       x1="450"
       y1="260"
       x2="450"
       y2="290.26401"
       id="line90" />
    <polygon
       style="fill:#000000"
       points="450,297.764 445,287.764 450,290.264 455,287.764 "
       id="polygon92" />
    <polygon
       style="fill:none;fill-opacity:0;stroke:#000000;stroke-width:2"
       points="450,297.764 445,287.764 450,290.264 455,287.764 "
       id="polygon94" />
  </g>
  <g
     id="g96"
     transform="translate(5.4478625,8.7343752)">
    <line
       style="fill:none;fill-opacity:0;stroke:#000000;stroke-width:2"
       x1="450"
       y1="500"
       x2="450"
       y2="530.26398"
       id="line98" />
    <polygon
       style="fill:#000000"
       points="450,537.764 445,527.764 450,530.264 455,527.764 "
       id="polygon100" />
    <polygon
       style="fill:none;fill-opacity:0;stroke:#000000;stroke-width:2"
       points="450,537.764 445,527.764 450,530.264 455,527.764 "
       id="polygon102" />
  </g>
  <rect
     style="fill:none;fill-opacity:0;stroke:#000000;stroke-width:2"
     x="405.44788"
     y="788.73438"
     width="100"
     height="40"
     id="rect104" />
  <text
     font-size="15.8044"
     style="font-style:normal;font-weight:700;font-size:15.80440044px;font-family:sans-serif;text-anchor:middle;fill:#000000"
     x="455.44788"
     y="814.18439"
     id="text106">
    <tspan
       x="455.44788"
       y="814.18439"
       id="tspan108">read?</tspan>
  </text>
  <g
     id="g110"
     transform="translate(5.4478625,8.7343752)">
    <polygon
       style="fill:none;fill-opacity:0;stroke:#000000;stroke-width:2"
       points="450,620 500,640 450,660 400,640 "
       id="polygon112" />
    <polygon
       style="fill:none;fill-opacity:0;stroke:#000000;stroke-width:2"
       points="450,620 500,640 450,660 400,640 "
       id="polygon114" />
  </g>
  <rect
     style="fill:none;fill-opacity:0;stroke:#000000;stroke-width:2"
     x="405.44788"
     y="548.73438"
     width="100"
     height="40"
     id="rect116" />
  <text
     font-size="15.8044"
     style="font-style:normal;font-weight:700;font-size:15.80440044px;font-family:sans-serif;text-anchor:middle;fill:#000000"
     x="455.44788"
     y="573.95435"
     id="text118">
    <tspan
       x="455.44788"
       y="573.95435"
       id="tspan120">mux?</tspan>
  </text>
  <rect
     style="fill:none;fill-opacity:0;stroke:#000000;stroke-width:2"
     x="405.44788"
     y="708.73438"
     width="100"
     height="40"
     id="rect122" />
  <text
     font-size="15.8044"
     style="font-style:normal;font-weight:700;font-size:15.80440044px;font-family:sans-serif;text-anchor:middle;fill:#000000"
     x="455.44788"
     y="734.18439"
     id="text124">
    <tspan
       x="455.44788"
       y="734.18439"
       id="tspan126">switch?</tspan>
  </text>
  <g
     id="g128"
     transform="translate(5.4478625,8.7343752)">
    <line
       style="fill:none;fill-opacity:0;stroke:#000000;stroke-width:2"
       x1="450"
       y1="580"
       x2="450"
       y2="610.26398"
       id="line130" />
    <polygon
       style="fill:#000000"
       points="450,617.764 445,607.764 450,610.264 455,607.764 "
       id="polygon132" />
    <polygon
       style="fill:none;fill-opacity:0;stroke:#000000;stroke-width:2"
       points="450,617.764 445,607.764 450,610.264 455,607.764 "
       id="polygon134" />
  </g>
  <g
     id="g136"
     transform="translate(5.4478625,8.7343752)">
    <polyline
       style="fill:none;fill-opacity:0;stroke:#000000;stroke-width:2"
       points="400,640 379,640 379,600 440.264,600 "
       id="polyline138" />
    <polygon
       style="fill:#000000"
       points="447.764,600 437.764,605 440.264,600 437.764,595 "
       id="polygon140" />
    <polygon
       style="fill:none;fill-opacity:0;stroke:#000000;stroke-width:2"
       points="447.764,600 437.764,605 440.264,600 437.764,595 "
       id="polygon142" />
  </g>
  <g
     id="g144"
     transform="translate(5.4478625,8.7343752)">
    <line
       style="fill:none;fill-opacity:0;stroke:#000000;stroke-width:2"
       x1="450"
       y1="660"
       x2="450"
       y2="690.26398"
       id="line146" />
    <polygon
       style="fill:#000000"
       points="450,697.764 445,687.764 450,690.264 455,687.764 "
       id="polygon148" />
    <polygon
       style="fill:none;fill-opacity:0;stroke:#000000;stroke-width:2"
       points="450,697.764 445,687.764 450,690.264 455,687.764 "
       id="polygon150" />
  </g>
  <g
     id="g152"
     transform="translate(5.4478625,8.7343752)">
    <line
       style="fill:none;fill-opacity:0;stroke:#000000;stroke-width:2"
       x1="450"
       y1="740"
       x2="450"
       y2="770.26398"
       id="line154" />
    <polygon
       style="fill:#000000"
       points="450,777.764 445,767.764 450,770.264 455,767.764 "
       id="polygon156" />
    <polygon
       style="fill:none;fill-opacity:0;stroke:#000000;stroke-width:2"
       points="450,777.764 445,767.764 450,770.264 455,767.764 "
       id="polygon158" />
  </g>
  <g
     id="g160"
     transform="translate(5.4478625,8.7343752)">
    <polyline
       style="fill:none;fill-opacity:0;stroke:#000000;stroke-width:2"
       points="450,820 450,840 360,840 360,280 440.264,280 "
       id="polyline162" />
    <polygon
       style="fill:#000000"
       points="447.764,280 437.764,285 440.264,280 437.764,275 "
       id="polygon164" />
    <polygon
       style="fill:none;fill-opacity:0;stroke:#000000;stroke-width:2"
       points="447.764,280 437.764,285 440.264,280 437.764,275 "
       id="polygon166" />
  </g>
  <rect
     style="fill:none;fill-opacity:0;stroke:#000000;stroke-width:2"
     x="265.44788"
     y="228.73438"
     width="100"
     height="40"
     id="rect168" />
  <text
     font-size="15.8044"
     style="font-style:normal;font-weight:700;font-size:15.80440044px;font-family:sans-serif;text-anchor:middle;fill:#000000"
     x="315.44788"
     y="254.18437"
     id="text170">
    <tspan
       x="315.44788"
       y="254.18437"
       id="tspan172">data</tspan>
  </text>
  <g
     id="g174"
     transform="translate(5.4478625,8.7343752)">
    <line
       style="fill:none;fill-opacity:0;stroke:#000000;stroke-width:2"
       x1="360"
       y1="240"
       x2="390.26401"
       y2="240"
       id="line176" />
    <polygon
       style="fill:#000000"
       points="397.764,240 387.764,245 390.264,240 387.764,235 "
       id="polygon178" />
    <polygon
       style="fill:none;fill-opacity:0;stroke:#000000;stroke-width:2"
       points="397.764,240 387.764,245 390.264,240 387.764,235 "
       id="polygon180" />
  </g>
  <g
     id="g182"
     transform="translate(5.4478625,8.7343752)">
    <polyline
       style="fill:none;fill-opacity:0;stroke:#000000;stroke-width:2"
       points="400,320 310,320 310,269.736 "
       id="polyline184" />
    <polygon
       style="fill:#000000"
       points="310,262.236 315,272.236 310,269.736 305,272.236 "
       id="polygon186" />
    <polygon
       style="fill:none;fill-opacity:0;stroke:#000000;stroke-width:2"
       points="310,262.236 315,272.236 310,269.736 305,272.236 "
       id="polygon188" />
  </g>
</svg>
