<?xml version="1.0" encoding="UTF-8" standalone="no"?>
<svg
   xmlns:dc="http://purl.org/dc/elements/1.1/"
   xmlns:cc="http://creativecommons.org/ns#"
   xmlns:rdf="http://www.w3.org/1999/02/22-rdf-syntax-ns#"
   xmlns:svg="http://www.w3.org/2000/svg"
   xmlns="http://www.w3.org/2000/svg"
   xmlns:sodipodi="http://sodipodi.sourceforge.net/DTD/sodipodi-0.dtd"
   xmlns:inkscape="http://www.inkscape.org/namespaces/inkscape"
   width="479.61353mm"
   height="344.91928mm"
   viewBox="272 237 948.00205 673.60707"
   id="svg2"
   version="1.1"
   inkscape:version="0.91 r13725"
   sodipodi:docname="MuxTriggerRef.svg">
  <metadata
     id="metadata358">
    <rdf:RDF>
      <cc:Work
         rdf:about="">
        <dc:format>image/svg+xml</dc:format>
        <dc:type
           rdf:resource="http://purl.org/dc/dcmitype/StillImage" />
        <dc:title></dc:title>
      </cc:Work>
    </rdf:RDF>
  </metadata>
  <defs
     id="defs356" />
  <sodipodi:namedview
     pagecolor="#ffffff"
     bordercolor="#666666"
     borderopacity="1"
     objecttolerance="10"
     gridtolerance="10"
     guidetolerance="10"
     inkscape:pageopacity="0"
     inkscape:pageshadow="2"
     inkscape:window-width="841"
     inkscape:window-height="480"
     id="namedview354"
     showgrid="false"
     units="mm"
     fit-margin-top="5"
     fit-margin-right="5"
     fit-margin-bottom="5"
     fit-margin-left="5"
     inkscape:zoom="0.14951773"
     inkscape:cx="849.02425"
     inkscape:cy="612.87011"
     inkscape:window-x="0"
     inkscape:window-y="1392"
     inkscape:window-maximized="0"
     inkscape:current-layer="svg2" />
  <rect
     style="fill:none;fill-opacity:0;stroke:#000000;stroke-width:2;stroke-dasharray:20"
     x="289.11905"
     y="243.86172"
     width="360"
     height="200"
     id="rect4" />
  <g
     id="g6"
     transform="translate(9.1190467,3.8617282)">
    <line
       style="fill:none;fill-opacity:0;stroke:#000000;stroke-width:2"
       x1="280"
       y1="440"
       x2="830.26398"
       y2="440"
       id="line8" />
    <polygon
       style="fill:#000000"
       points="827.764,445 830.264,440 827.764,435 837.764,440 "
       id="polygon10" />
    <polygon
       style="fill:none;fill-opacity:0;stroke:#000000;stroke-width:2"
       points="827.764,445 830.264,440 827.764,435 837.764,440 "
       id="polygon12" />
  </g>
  <g
     id="g14"
     transform="translate(9.1190467,3.8617282)">
    <line
       style="fill:none;fill-opacity:0;stroke:#000000;stroke-width:2"
       x1="280"
       y1="440"
       x2="280"
       y2="249.73599"
       id="line16" />
    <polygon
       style="fill:#000000"
       points="285,252.236 280,249.736 275,252.236 280,242.236 "
       id="polygon18" />
    <polygon
       style="fill:none;fill-opacity:0;stroke:#000000;stroke-width:2"
       points="285,252.236 280,249.736 275,252.236 280,242.236 "
       id="polygon20" />
  </g>
  <g
     id="g22"
     transform="translate(9.1190467,3.8617282)">
    <line
       style="fill:none;fill-opacity:0;stroke:#000000;stroke-width:2"
       x1="780"
       y1="440"
       x2="780"
       y2="249.73599"
       id="line24" />
    <polygon
       style="fill:#000000"
       points="785,252.236 780,249.736 775,252.236 780,242.236 "
       id="polygon26" />
    <polygon
       style="fill:none;fill-opacity:0;stroke:#000000;stroke-width:2"
       points="785,252.236 780,249.736 775,252.236 780,242.236 "
       id="polygon28" />
  </g>
  <path
     style="fill:none;fill-opacity:0;stroke:#000000;stroke-width:2"
     d="m 289.11905,343.86173 c 40,-180 60,0 180,20 120,20 180,20 320,20"
     id="path30"
     inkscape:connector-curvature="0" />
  <rect
     style="fill:none;fill-opacity:0;stroke:#000000;stroke-width:2"
     x="809.11902"
     y="743.86176"
     width="400"
     height="120"
     id="rect32" />
  <text
     font-size="15.8044"
     style="font-style:normal;font-weight:700;font-size:15.80440044px;font-family:sans-serif;text-anchor:middle;fill:#000000"
     x="289.11905"
     y="469.31174"
     id="text34">
    <tspan
       x="289.11905"
       y="469.31174"
       id="tspan36">0</tspan>
  </text>
  <text
     font-size="15.8044"
     style="font-style:normal;font-weight:700;font-size:15.80440044px;font-family:sans-serif;text-anchor:middle;fill:#000000"
     x="1009.119"
     y="809.31177"
     id="text38">
    <tspan
       x="1009.119"
       y="809.31177"
       id="tspan40">or</tspan>
  </text>
  <g
     id="g42"
     transform="translate(9.1190467,3.8617282)">
    <polygon
       style="fill:none;fill-opacity:0;stroke:#000000;stroke-width:0.2"
       points="533.333,660 466.667,660 400,560 466.667,560 500,585 533.333,560 600,560 "
       id="polygon44" />
    <text
       font-size="15.8044"
       style="font-style:normal;font-weight:700;font-size:15.80440044px;font-family:sans-serif;text-anchor:middle;fill:#000000"
       x="500"
       y="617.56097"
       id="text46">
      <tspan
         x="500"
         y="617.56097"
         id="tspan48">+</tspan>
      <tspan
         x="500"
         y="637.31702"
         id="tspan50">(12b)</tspan>
    </text>
  </g>
  <g
     id="g52"
     transform="translate(9.1190467,3.8617282)">
    <polyline
       style="fill:none;fill-opacity:0;stroke:#000000;stroke-width:2"
       points="566.666,550.264 566.666,540 700,540 700,540 "
       id="polyline54" />
    <polygon
       style="fill:#000000"
       points="561.666,547.764 566.666,550.264 571.666,547.764 566.666,557.764 "
       id="polygon56" />
    <polygon
       style="fill:none;fill-opacity:0;stroke:#000000;stroke-width:2"
       points="561.666,547.764 566.666,550.264 571.666,547.764 566.666,557.764 "
       id="polygon58" />
  </g>
  <g
     id="g60"
     transform="translate(9.1190467,3.8617282)">
    <polygon
       style="fill:none;fill-opacity:0;stroke:#000000;stroke-width:0.2"
       points="625,800 600,766.667 600,700 700,766.667 700,833.333 600,900 600,833.333 "
       id="polygon62" />
    <text
       font-size="15.8044"
       style="font-style:normal;font-weight:700;font-size:15.80440044px;font-family:sans-serif;text-anchor:middle;fill:#000000"
       x="662.5"
       y="795.06097"
       id="text64">
      <tspan
         x="662.5"
         y="795.06097"
         id="tspan66">+</tspan>
      <tspan
         x="662.5"
         y="814.81702"
         id="tspan68">(28b)</tspan>
    </text>
  </g>
  <g
     id="g70"
     transform="translate(9.1190467,3.8617282)">
    <polyline
       style="fill:none;fill-opacity:0;stroke:#000000;stroke-width:2"
       points="500,660 500,660 500,733.334 590.264,733.334 "
       id="polyline72" />
    <polygon
       style="fill:#000000"
       points="587.764,738.334 590.264,733.334 587.764,728.334 597.764,733.334 "
       id="polygon74" />
    <polygon
       style="fill:none;fill-opacity:0;stroke:#000000;stroke-width:2"
       points="587.764,738.334 590.264,733.334 587.764,728.334 597.764,733.334 "
       id="polygon76" />
  </g>
  <g
     id="g78"
     transform="translate(9.1190467,3.8617282)">
    <line
       style="fill:none;fill-opacity:0;stroke:#000000;stroke-width:2"
       x1="700"
       y1="800"
       x2="790.26398"
       y2="800"
       id="line80" />
    <polygon
       style="fill:#000000"
       points="787.764,805 790.264,800 787.764,795 797.764,800 "
       id="polygon82" />
    <polygon
       style="fill:none;fill-opacity:0;stroke:#000000;stroke-width:2"
       points="787.764,805 790.264,800 787.764,795 797.764,800 "
       id="polygon84" />
  </g>
  <rect
     style="fill:none;fill-opacity:0;stroke:#000000;stroke-width:2"
     x="309.11905"
     y="843.86176"
     width="200"
     height="60"
     id="rect86" />
  <text
     font-size="15.8044"
     style="font-style:normal;font-weight:700;font-size:15.80440044px;font-family:sans-serif;text-anchor:middle;fill:#000000"
     x="409.11905"
     y="879.31177"
     id="text88">
    <tspan
       x="409.11905"
       y="879.31177"
       id="tspan90">coarse counter</tspan>
  </text>
  <g
     id="g92"
     transform="translate(9.1190467,3.8617282)">
    <line
       style="fill:none;fill-opacity:0;stroke:#000000;stroke-width:2"
       x1="500.98901"
       y1="868.31702"
       x2="590.26501"
       y2="866.828"
       id="line94" />
    <polygon
       style="fill:#000000"
       points="587.849,871.869 590.265,866.828 587.682,861.871 597.764,866.703 "
       id="polygon96" />
    <polygon
       style="fill:none;fill-opacity:0;stroke:#000000;stroke-width:2"
       points="587.849,871.869 590.265,866.828 587.682,861.871 597.764,866.703 "
       id="polygon98" />
  </g>
  <g
     id="g100"
     transform="translate(9.1190467,3.8617282)">
    <line
       style="fill:none;fill-opacity:0;stroke:#5f5f5f;stroke-width:2"
       x1="380"
       y1="440"
       x2="380"
       y2="409.73599"
       id="line102" />
    <polygon
       style="fill:#5f5f5f"
       points="385,412.236 380,409.736 375,412.236 380,402.236 "
       id="polygon104" />
    <polygon
       style="fill:none;fill-opacity:0;stroke:#5f5f5f;stroke-width:2"
       points="385,412.236 380,409.736 375,412.236 380,402.236 "
       id="polygon106" />
  </g>
  <g
     id="g108"
     transform="translate(9.1190467,3.8617282)">
    <line
       style="fill:none;fill-opacity:0;stroke:#5f5f5f;stroke-width:2"
       x1="280"
       y1="440"
       x2="280"
       y2="409.73599"
       id="line110" />
    <polygon
       style="fill:#5f5f5f"
       points="285,412.236 280,409.736 275,412.236 280,402.236 "
       id="polygon112" />
    <polygon
       style="fill:none;fill-opacity:0;stroke:#5f5f5f;stroke-width:2"
       points="285,412.236 280,409.736 275,412.236 280,402.236 "
       id="polygon114" />
  </g>
  <g
     id="g116"
     transform="translate(9.1190467,3.8617282)">
    <line
       style="fill:none;fill-opacity:0;stroke:#5f5f5f;stroke-width:2"
       x1="480"
       y1="440"
       x2="480"
       y2="409.73599"
       id="line118" />
    <polygon
       style="fill:#5f5f5f"
       points="485,412.236 480,409.736 475,412.236 480,402.236 "
       id="polygon120" />
    <polygon
       style="fill:none;fill-opacity:0;stroke:#5f5f5f;stroke-width:2"
       points="485,412.236 480,409.736 475,412.236 480,402.236 "
       id="polygon122" />
  </g>
  <g
     id="g124"
     transform="translate(9.1190467,3.8617282)">
    <line
       style="fill:none;fill-opacity:0;stroke:#5f5f5f;stroke-width:2"
       x1="580"
       y1="440"
       x2="580"
       y2="409.73599"
       id="line126" />
    <polygon
       style="fill:#5f5f5f"
       points="585,412.236 580,409.736 575,412.236 580,402.236 "
       id="polygon128" />
    <polygon
       style="fill:none;fill-opacity:0;stroke:#5f5f5f;stroke-width:2"
       points="585,412.236 580,409.736 575,412.236 580,402.236 "
       id="polygon130" />
  </g>
  <g
     id="g132"
     transform="translate(9.1190467,3.8617282)">
    <line
       style="fill:none;fill-opacity:0;stroke:#5f5f5f;stroke-width:2"
       x1="680"
       y1="440"
       x2="680"
       y2="409.73599"
       id="line134" />
    <polygon
       style="fill:#5f5f5f"
       points="685,412.236 680,409.736 675,412.236 680,402.236 "
       id="polygon136" />
    <polygon
       style="fill:none;fill-opacity:0;stroke:#5f5f5f;stroke-width:2"
       points="685,412.236 680,409.736 675,412.236 680,402.236 "
       id="polygon138" />
  </g>
  <g
     id="g140"
     transform="translate(9.1190467,3.8617282)">
    <line
       style="fill:none;fill-opacity:0;stroke:#5f5f5f;stroke-width:2"
       x1="780"
       y1="440"
       x2="780"
       y2="409.73599"
       id="line142" />
    <polygon
       style="fill:#5f5f5f"
       points="785,412.236 780,409.736 775,412.236 780,402.236 "
       id="polygon144" />
    <polygon
       style="fill:none;fill-opacity:0;stroke:#5f5f5f;stroke-width:2"
       points="785,412.236 780,409.736 775,412.236 780,402.236 "
       id="polygon146" />
  </g>
  <path
     style="fill:none;fill-opacity:0;stroke:#000000;stroke-width:2"
     d="m 389.11905,463.86173 c 4,28 30,-4 50,16"
     id="path148"
     inkscape:connector-curvature="0" />
  <path
     style="fill:none;fill-opacity:0;stroke:#000000;stroke-width:2"
     d="m 489.11905,463.86173 c -4,28 -30,-6 -50,16"
     id="path150"
     inkscape:connector-curvature="0" />
  <text
     font-size="15.8044"
     style="font-style:normal;font-weight:700;font-size:15.80440044px;font-family:sans-serif;text-anchor:middle;fill:#000000"
     x="439.11905"
     y="499.31174"
     id="text152">
    <tspan
       x="439.11905"
       y="499.31174"
       id="tspan154">fine code</tspan>
  </text>
  <g
     id="g156"
     transform="translate(9.1190467,3.8617282)">
    <line
       style="fill:none;fill-opacity:0;stroke:#000000;stroke-width:2"
       x1="433"
       y1="520"
       x2="433"
       y2="550.26398"
       id="line158" />
    <polygon
       style="fill:#000000"
       points="428,547.764 433,550.264 438,547.764 433,557.764 "
       id="polygon160" />
    <polygon
       style="fill:none;fill-opacity:0;stroke:#000000;stroke-width:2"
       points="428,547.764 433,550.264 438,547.764 433,557.764 "
       id="polygon162" />
  </g>
  <text
     font-size="15.8044"
     style="font-style:normal;font-weight:700;font-size:15.80440044px;font-family:sans-serif;text-anchor:middle;fill:#000000"
     x="569.11902"
     y="263.86172"
     id="text164">
    <tspan
       x="569.11902"
       y="263.86172"
       id="tspan166">memory window</tspan>
  </text>
  <text
     font-size="15.8044"
     style="font-style:normal;font-weight:700;font-size:15.80440044px;font-family:sans-serif;text-anchor:middle;fill:#000000"
     x="1009.119"
     y="779.31177"
     id="text168">
    <tspan
       x="1009.119"
       y="779.31177"
       id="tspan170">1024x16b bin histogram memory</tspan>
  </text>
  <text
     font-size="15.8044"
     style="font-style:normal;font-weight:700;font-size:15.80440044px;font-family:sans-serif;text-anchor:middle;fill:#000000"
     x="1009.119"
     y="839.31177"
     id="text172">
    <tspan
       x="1009.119"
       y="839.31177"
       id="tspan174">512x28b timestamp memory</tspan>
  </text>
  <g
     id="g176"
     transform="translate(9.1190467,3.8617282)">
    <g
       id="g178">
      <line
         style="fill:none;fill-opacity:0;stroke:#5f5f5f;stroke-width:2"
         x1="320"
         y1="440"
         x2="319.80399"
         y2="424.41199"
         id="line180" />
      <polyline
         style="fill:none;fill-opacity:0;stroke:#5f5f5f;stroke-width:2"
         points="324.901,432.112 319.776,422.176 314.902,432.238 "
         id="polyline182" />
    </g>
    <g
       id="g184">
      <line
         style="fill:none;fill-opacity:0;stroke:#5f5f5f;stroke-width:2"
         x1="300"
         y1="440"
         x2="299.80399"
         y2="424.41199"
         id="line186" />
      <polyline
         style="fill:none;fill-opacity:0;stroke:#5f5f5f;stroke-width:2"
         points="304.901,432.112 299.776,422.176 294.902,432.238 "
         id="polyline188" />
    </g>
    <g
       id="g190">
      <line
         style="fill:none;fill-opacity:0;stroke:#5f5f5f;stroke-width:2"
         x1="280"
         y1="440"
         x2="280"
         y2="424.47198"
         id="line192" />
      <polyline
         style="fill:none;fill-opacity:0;stroke:#5f5f5f;stroke-width:2"
         points="285,432.236 280,422.236 275,432.236 "
         id="polyline194" />
    </g>
    <g
       id="g196">
      <line
         style="fill:none;fill-opacity:0;stroke:#5f5f5f;stroke-width:2"
         x1="340"
         y1="440"
         x2="339.80399"
         y2="424.41199"
         id="line198" />
      <polyline
         style="fill:none;fill-opacity:0;stroke:#5f5f5f;stroke-width:2"
         points="344.901,432.112 339.776,422.176 334.902,432.238 "
         id="polyline200" />
    </g>
    <g
       id="g202">
      <line
         style="fill:none;fill-opacity:0;stroke:#5f5f5f;stroke-width:2"
         x1="360"
         y1="440"
         x2="359.80399"
         y2="424.41199"
         id="line204" />
      <polyline
         style="fill:none;fill-opacity:0;stroke:#5f5f5f;stroke-width:2"
         points="364.901,432.112 359.776,422.176 354.902,432.238 "
         id="polyline206" />
    </g>
  </g>
  <g
     id="g208"
     transform="translate(9.1190467,3.8617282)">
    <g
       id="g210">
      <line
         style="fill:none;fill-opacity:0;stroke:#5f5f5f;stroke-width:2"
         x1="420"
         y1="440"
         x2="419.80399"
         y2="424.41199"
         id="line212" />
      <polyline
         style="fill:none;fill-opacity:0;stroke:#5f5f5f;stroke-width:2"
         points="424.901,432.112 419.776,422.176 414.902,432.238 "
         id="polyline214" />
    </g>
    <g
       id="g216">
      <line
         style="fill:none;fill-opacity:0;stroke:#5f5f5f;stroke-width:2"
         x1="400"
         y1="440"
         x2="399.80399"
         y2="424.41199"
         id="line218" />
      <polyline
         style="fill:none;fill-opacity:0;stroke:#5f5f5f;stroke-width:2"
         points="404.901,432.112 399.776,422.176 394.902,432.238 "
         id="polyline220" />
    </g>
    <g
       id="g222">
      <line
         style="fill:none;fill-opacity:0;stroke:#5f5f5f;stroke-width:2"
         x1="380"
         y1="440"
         x2="380"
         y2="424.47198"
         id="line224" />
      <polyline
         style="fill:none;fill-opacity:0;stroke:#5f5f5f;stroke-width:2"
         points="385,432.236 380,422.236 375,432.236 "
         id="polyline226" />
    </g>
    <g
       id="g228">
      <line
         style="fill:none;fill-opacity:0;stroke:#5f5f5f;stroke-width:2"
         x1="440"
         y1="440"
         x2="439.80399"
         y2="424.41199"
         id="line230" />
      <polyline
         style="fill:none;fill-opacity:0;stroke:#5f5f5f;stroke-width:2"
         points="444.901,432.112 439.776,422.176 434.902,432.238 "
         id="polyline232" />
    </g>
    <g
       id="g234">
      <line
         style="fill:none;fill-opacity:0;stroke:#5f5f5f;stroke-width:2"
         x1="460"
         y1="440"
         x2="459.80399"
         y2="424.41199"
         id="line236" />
      <polyline
         style="fill:none;fill-opacity:0;stroke:#5f5f5f;stroke-width:2"
         points="464.901,432.112 459.776,422.176 454.902,432.238 "
         id="polyline238" />
    </g>
  </g>
  <g
     id="g240"
     transform="translate(9.1190467,3.8617282)">
    <g
       id="g242">
      <line
         style="fill:none;fill-opacity:0;stroke:#5f5f5f;stroke-width:2"
         x1="520"
         y1="440"
         x2="519.80402"
         y2="424.41199"
         id="line244" />
      <polyline
         style="fill:none;fill-opacity:0;stroke:#5f5f5f;stroke-width:2"
         points="524.901,432.112 519.776,422.176 514.902,432.238 "
         id="polyline246" />
    </g>
    <g
       id="g248">
      <line
         style="fill:none;fill-opacity:0;stroke:#5f5f5f;stroke-width:2"
         x1="500"
         y1="440"
         x2="499.80399"
         y2="424.41199"
         id="line250" />
      <polyline
         style="fill:none;fill-opacity:0;stroke:#5f5f5f;stroke-width:2"
         points="504.901,432.112 499.776,422.176 494.902,432.238 "
         id="polyline252" />
    </g>
    <g
       id="g254">
      <line
         style="fill:none;fill-opacity:0;stroke:#5f5f5f;stroke-width:2"
         x1="480"
         y1="440"
         x2="480"
         y2="424.47198"
         id="line256" />
      <polyline
         style="fill:none;fill-opacity:0;stroke:#5f5f5f;stroke-width:2"
         points="485,432.236 480,422.236 475,432.236 "
         id="polyline258" />
    </g>
    <g
       id="g260">
      <line
         style="fill:none;fill-opacity:0;stroke:#5f5f5f;stroke-width:2"
         x1="540"
         y1="440"
         x2="539.80402"
         y2="424.41199"
         id="line262" />
      <polyline
         style="fill:none;fill-opacity:0;stroke:#5f5f5f;stroke-width:2"
         points="544.901,432.112 539.776,422.176 534.902,432.238 "
         id="polyline264" />
    </g>
    <g
       id="g266">
      <line
         style="fill:none;fill-opacity:0;stroke:#5f5f5f;stroke-width:2"
         x1="560"
         y1="440"
         x2="559.80402"
         y2="424.41199"
         id="line268" />
      <polyline
         style="fill:none;fill-opacity:0;stroke:#5f5f5f;stroke-width:2"
         points="564.901,432.112 559.776,422.176 554.902,432.238 "
         id="polyline270" />
    </g>
  </g>
  <g
     id="g272"
     transform="translate(9.1190467,3.8617282)">
    <g
       id="g274">
      <line
         style="fill:none;fill-opacity:0;stroke:#5f5f5f;stroke-width:2"
         x1="620"
         y1="440"
         x2="619.80402"
         y2="424.41199"
         id="line276" />
      <polyline
         style="fill:none;fill-opacity:0;stroke:#5f5f5f;stroke-width:2"
         points="624.901,432.112 619.776,422.176 614.902,432.238 "
         id="polyline278" />
    </g>
    <g
       id="g280">
      <line
         style="fill:none;fill-opacity:0;stroke:#5f5f5f;stroke-width:2"
         x1="600"
         y1="440"
         x2="599.80402"
         y2="424.41199"
         id="line282" />
      <polyline
         style="fill:none;fill-opacity:0;stroke:#5f5f5f;stroke-width:2"
         points="604.901,432.112 599.776,422.176 594.902,432.238 "
         id="polyline284" />
    </g>
    <g
       id="g286">
      <line
         style="fill:none;fill-opacity:0;stroke:#5f5f5f;stroke-width:2"
         x1="580"
         y1="440"
         x2="580"
         y2="424.47198"
         id="line288" />
      <polyline
         style="fill:none;fill-opacity:0;stroke:#5f5f5f;stroke-width:2"
         points="585,432.236 580,422.236 575,432.236 "
         id="polyline290" />
    </g>
    <g
       id="g292">
      <line
         style="fill:none;fill-opacity:0;stroke:#5f5f5f;stroke-width:2"
         x1="640"
         y1="440"
         x2="639.80402"
         y2="424.41199"
         id="line294" />
      <polyline
         style="fill:none;fill-opacity:0;stroke:#5f5f5f;stroke-width:2"
         points="644.901,432.112 639.776,422.176 634.902,432.238 "
         id="polyline296" />
    </g>
    <g
       id="g298">
      <line
         style="fill:none;fill-opacity:0;stroke:#5f5f5f;stroke-width:2"
         x1="660"
         y1="440"
         x2="659.80402"
         y2="424.41199"
         id="line300" />
      <polyline
         style="fill:none;fill-opacity:0;stroke:#5f5f5f;stroke-width:2"
         points="664.901,432.112 659.776,422.176 654.902,432.238 "
         id="polyline302" />
    </g>
  </g>
  <g
     id="g304"
     transform="translate(9.1190467,3.8617282)">
    <g
       id="g306">
      <line
         style="fill:none;fill-opacity:0;stroke:#5f5f5f;stroke-width:2"
         x1="720"
         y1="440"
         x2="719.80402"
         y2="424.41199"
         id="line308" />
      <polyline
         style="fill:none;fill-opacity:0;stroke:#5f5f5f;stroke-width:2"
         points="724.901,432.112 719.776,422.176 714.902,432.238 "
         id="polyline310" />
    </g>
    <g
       id="g312">
      <line
         style="fill:none;fill-opacity:0;stroke:#5f5f5f;stroke-width:2"
         x1="700"
         y1="440"
         x2="699.80402"
         y2="424.41199"
         id="line314" />
      <polyline
         style="fill:none;fill-opacity:0;stroke:#5f5f5f;stroke-width:2"
         points="704.901,432.112 699.776,422.176 694.902,432.238 "
         id="polyline316" />
    </g>
    <g
       id="g318">
      <line
         style="fill:none;fill-opacity:0;stroke:#5f5f5f;stroke-width:2"
         x1="680"
         y1="440"
         x2="680"
         y2="424.47198"
         id="line320" />
      <polyline
         style="fill:none;fill-opacity:0;stroke:#5f5f5f;stroke-width:2"
         points="685,432.236 680,422.236 675,432.236 "
         id="polyline322" />
    </g>
    <g
       id="g324">
      <line
         style="fill:none;fill-opacity:0;stroke:#5f5f5f;stroke-width:2"
         x1="740"
         y1="440"
         x2="739.80402"
         y2="424.41199"
         id="line326" />
      <polyline
         style="fill:none;fill-opacity:0;stroke:#5f5f5f;stroke-width:2"
         points="744.901,432.112 739.776,422.176 734.902,432.238 "
         id="polyline328" />
    </g>
    <g
       id="g330">
      <line
         style="fill:none;fill-opacity:0;stroke:#5f5f5f;stroke-width:2"
         x1="760"
         y1="440"
         x2="759.80402"
         y2="424.41199"
         id="line332" />
      <polyline
         style="fill:none;fill-opacity:0;stroke:#5f5f5f;stroke-width:2"
         points="764.901,432.112 759.776,422.176 754.902,432.238 "
         id="polyline334" />
    </g>
  </g>
  <g
     id="g336"
     transform="translate(9.1190467,3.8617282)">
    <line
       style="fill:none;fill-opacity:0;stroke:#5f5f5f;stroke-width:2"
       x1="820"
       y1="440"
       x2="819.80402"
       y2="424.41199"
       id="line338" />
    <polyline
       style="fill:none;fill-opacity:0;stroke:#5f5f5f;stroke-width:2"
       points="824.901,432.112 819.776,422.176 814.902,432.238 "
       id="polyline340" />
  </g>
  <g
     id="g342"
     transform="translate(9.1190467,3.8617282)">
    <line
       style="fill:none;fill-opacity:0;stroke:#5f5f5f;stroke-width:2"
       x1="800"
       y1="440"
       x2="799.80402"
       y2="424.41199"
       id="line344" />
    <polyline
       style="fill:none;fill-opacity:0;stroke:#5f5f5f;stroke-width:2"
       points="804.901,432.112 799.776,422.176 794.902,432.238 "
       id="polyline346" />
  </g>
  <g
     id="g348"
     transform="translate(9.1190467,3.8617282)">
    <line
       style="fill:none;fill-opacity:0;stroke:#5f5f5f;stroke-width:2"
       x1="780"
       y1="440"
       x2="780"
       y2="424.47198"
       id="line350" />
    <polyline
       style="fill:none;fill-opacity:0;stroke:#5f5f5f;stroke-width:2"
       points="785,432.236 780,422.236 775,432.236 "
       id="polyline352" />
  </g>
</svg>
